HIERARCHY
ROOT Root
{
  OFFSET 0.0 0.0 0.0
  CHANNELS 6 Xposition Yposition Zposition Zrotation Yrotation Xrotation
  JOINT Hips
  {
    OFFSET 0.0 100.0 0.0
    CHANNELS 6 Xposition Yposition Zposition Zrotation Yrotation Xrotation
    JOINT Spine1
    {
      OFFSET 5.003913 -0.037094 -0.013727
      CHANNELS 3 Zrotation Yrotation Xrotation
      JOINT Spine2
      {
        OFFSET 7.125363 -1e-06 0.0
        CHANNELS 3 Zrotation Yrotation Xrotation
        JOINT Chest
        {
          OFFSET 7.594027 1e-06 0.0
          CHANNELS 3 Zrotation Yrotation Xrotation
          JOINT Neck1
          {
            OFFSET 26.313086 -0.460272 -0.181672
            CHANNELS 3 Zrotation Yrotation Xrotation
            JOINT Neck2
            {
              OFFSET 8.045911 0.0 0.0
              CHANNELS 3 Zrotation Yrotation Xrotation
              JOINT Head
              {
                OFFSET 6.432774 0.0 0.0
                CHANNELS 3 Zrotation Yrotation Xrotation
                JOINT HeadEnd
                {
                  OFFSET 16.169773 0.06451 0.00362
                  CHANNELS 3 Zrotation Yrotation Xrotation
                }
                JOINT Jaw
                {
                  OFFSET 0.108741 3.12938 0.002639
                  CHANNELS 3 Zrotation Yrotation Xrotation
                }
                JOINT LeftEye
                {
                  OFFSET 4.45173 8.166359 3.206392
                  CHANNELS 3 Zrotation Yrotation Xrotation
                }
                JOINT RightEye
                {
                  OFFSET 4.436895 8.135758 -3.222429
                  CHANNELS 3 Zrotation Yrotation Xrotation
                }
              }
            }
          }
          JOINT LeftShoulder
          {
            OFFSET 23.218927 5.195579 1.621656
            CHANNELS 3 Zrotation Yrotation Xrotation
            JOINT LeftArm
            {
              OFFSET 15.902118 2e-06 -2e-06
              CHANNELS 3 Zrotation Yrotation Xrotation
              JOINT LeftForeArm
              {
                OFFSET 28.739307 0.0 -1e-06
                CHANNELS 3 Zrotation Yrotation Xrotation
                JOINT LeftHand
                {
                  OFFSET 27.093981 -4e-06 0.0
                  CHANNELS 3 Zrotation Yrotation Xrotation
                  JOINT LeftHandThumb1
                  {
                    OFFSET 2.276781 3.380274 0.83384
                    CHANNELS 3 Zrotation Yrotation Xrotation
                    JOINT LeftHandThumb2
                    {
                      OFFSET 4.705309 -1e-06 -1e-06
                      CHANNELS 3 Zrotation Yrotation Xrotation
                      JOINT LeftHandThumb3
                      {
                        OFFSET 2.798515 0.0 3e-06
                        CHANNELS 3 Zrotation Yrotation Xrotation
                        JOINT LeftHandThumbEnd
                        {
                          OFFSET 3.180793 4e-06 -4e-06
                          CHANNELS 3 Zrotation Yrotation Xrotation
                        }
                      }
                    }
                  }
                  JOINT LeftHandIndex1
                  {
                    OFFSET 3.247786 2.352677 0.137192
                    CHANNELS 3 Zrotation Yrotation Xrotation
                    JOINT LeftHandIndex2
                    {
                      OFFSET 6.367095 1e-06 0.0
                      CHANNELS 3 Zrotation Yrotation Xrotation
                      JOINT LeftHandIndex3
                      {
                        OFFSET 3.662364 0.0 0.0
                        CHANNELS 3 Zrotation Yrotation Xrotation
                        JOINT LeftHandIndex4
                        {
                          OFFSET 2.329242 4e-06 -4e-06
                          CHANNELS 3 Zrotation Yrotation Xrotation
                          JOINT LeftHandIndexEnd
                          {
                            OFFSET 2.767823 1e-06 0.0
                            CHANNELS 3 Zrotation Yrotation Xrotation
                          }
                        }
                      }
                    }
                  }
                  JOINT LeftHandMiddle1
                  {
                    OFFSET 3.163612 0.945023 -0.406112
                    CHANNELS 3 Zrotation Yrotation Xrotation
                    JOINT LeftHandMiddle2
                    {
                      OFFSET 6.276789 3e-06 0.0
                      CHANNELS 3 Zrotation Yrotation Xrotation
                      JOINT LeftHandMiddle3
                      {
                        OFFSET 4.35652 -1e-06 4e-06
                        CHANNELS 3 Zrotation Yrotation Xrotation
                        JOINT LeftHandMiddle4
                        {
                          OFFSET 2.996877 0.0 8e-06
                          CHANNELS 3 Zrotation Yrotation Xrotation
                          JOINT LeftHandMiddleEnd
                          {
                            OFFSET 2.323256 3e-06 -4e-06
                            CHANNELS 3 Zrotation Yrotation Xrotation
                          }
                        }
                      }
                    }
                  }
                  JOINT LeftHandRing1
                  {
                    OFFSET 2.882606 -0.309162 0.107445
                    CHANNELS 3 Zrotation Yrotation Xrotation
                    JOINT LeftHandRing2
                    {
                      OFFSET 6.033198 0.0 4e-06
                      CHANNELS 3 Zrotation Yrotation Xrotation
                      JOINT LeftHandRing3
                      {
                        OFFSET 4.350578 3e-06 0.0
                        CHANNELS 3 Zrotation Yrotation Xrotation
                        JOINT LeftHandRing4
                        {
                          OFFSET 2.651321 2e-06 -7e-06
                          CHANNELS 3 Zrotation Yrotation Xrotation
                          JOINT LeftHandRingEnd
                          {
                            OFFSET 1.937663 1e-06 -4e-06
                            CHANNELS 3 Zrotation Yrotation Xrotation
                          }
                        }
                      }
                    }
                  }
                  JOINT LeftHandPinky1
                  {
                    OFFSET 2.865315 -1.525436 0.575687
                    CHANNELS 3 Zrotation Yrotation Xrotation
                    JOINT LeftHandPinky2
                    {
                      OFFSET 5.54936 1e-06 -8e-06
                      CHANNELS 3 Zrotation Yrotation Xrotation
                      JOINT LeftHandPinky3
                      {
                        OFFSET 3.070974 0.0 -4e-06
                        CHANNELS 3 Zrotation Yrotation Xrotation
                        JOINT LeftHandPinky4
                        {
                          OFFSET 1.549672 1e-06 0.0
                          CHANNELS 3 Zrotation Yrotation Xrotation
                          JOINT LeftHandPinkyEnd
                          {
                            OFFSET 1.952123 0.0 0.0
                            CHANNELS 3 Zrotation Yrotation Xrotation
                          }
                        }
                      }
                    }
                  }
                }
              }
            }
          }
          JOINT RightShoulder
          {
            OFFSET 23.161716 5.296122 -1.380114
            CHANNELS 3 Zrotation Yrotation Xrotation
            JOINT RightArm
            {
              OFFSET -16.027195 -2e-06 1.1e-05
              CHANNELS 3 Zrotation Yrotation Xrotation
              JOINT RightForeArm
              {
                OFFSET -28.736639 4e-06 2e-06
                CHANNELS 3 Zrotation Yrotation Xrotation
                JOINT RightHand
                {
                  OFFSET -27.133619 6e-06 0.0
                  CHANNELS 3 Zrotation Yrotation Xrotation
                  JOINT RightHandThumb1
                  {
                    OFFSET -2.274328 -3.351035 -0.83067
                    CHANNELS 3 Zrotation Yrotation Xrotation
                    JOINT RightHandThumb2
                    {
                      OFFSET -4.703594 -3e-06 2e-06
                      CHANNELS 3 Zrotation Yrotation Xrotation
                      JOINT RightHandThumb3
                      {
                        OFFSET -2.794935 -4e-06 -3e-06
                        CHANNELS 3 Zrotation Yrotation Xrotation
                        JOINT RightHandThumbEnd
                        {
                          OFFSET -3.183852 4e-06 1e-06
                          CHANNELS 3 Zrotation Yrotation Xrotation
                        }
                      }
                    }
                  }
                  JOINT RightHandIndex1
                  {
                    OFFSET -3.253496 -2.33755 -0.127667
                    CHANNELS 3 Zrotation Yrotation Xrotation
                    JOINT RightHandIndex2
                    {
                      OFFSET -6.344434 0.0 0.0
                      CHANNELS 3 Zrotation Yrotation Xrotation
                      JOINT RightHandIndex3
                      {
                        OFFSET -3.654871 0.0 -8e-06
                        CHANNELS 3 Zrotation Yrotation Xrotation
                        JOINT RightHandIndex4
                        {
                          OFFSET -2.327586 -1e-06 0.0
                          CHANNELS 3 Zrotation Yrotation Xrotation
                          JOINT RightHandIndexEnd
                          {
                            OFFSET -2.770001 3e-06 8e-06
                            CHANNELS 3 Zrotation Yrotation Xrotation
                          }
                        }
                      }
                    }
                  }
                  JOINT RightHandMiddle1
                  {
                    OFFSET -3.168223 -0.944764 0.411762
                    CHANNELS 3 Zrotation Yrotation Xrotation
                    JOINT RightHandMiddle2
                    {
                      OFFSET -6.266691 -1e-06 -4e-06
                      CHANNELS 3 Zrotation Yrotation Xrotation
                      JOINT RightHandMiddle3
                      {
                        OFFSET -4.348901 0.0 0.0
                        CHANNELS 3 Zrotation Yrotation Xrotation
                        JOINT RightHandMiddle4
                        {
                          OFFSET -3.00024 2e-06 -4e-06
                          CHANNELS 3 Zrotation Yrotation Xrotation
                          JOINT RightHandMiddleEnd
                          {
                            OFFSET -2.321477 -4e-06 -4e-06
                            CHANNELS 3 Zrotation Yrotation Xrotation
                          }
                        }
                      }
                    }
                  }
                  JOINT RightHandRing1
                  {
                    OFFSET -2.885654 0.293261 -0.119232
                    CHANNELS 3 Zrotation Yrotation Xrotation
                    JOINT RightHandRing2
                    {
                      OFFSET -6.032835 -1e-06 -4e-06
                      CHANNELS 3 Zrotation Yrotation Xrotation
                      JOINT RightHandRing3
                      {
                        OFFSET -4.33881 0.0 -4e-06
                        CHANNELS 3 Zrotation Yrotation Xrotation
                        JOINT RightHandRing4
                        {
                          OFFSET -2.654903 -4e-06 -4e-06
                          CHANNELS 3 Zrotation Yrotation Xrotation
                          JOINT RightHandRingEnd
                          {
                            OFFSET -1.935122 0.0 4e-06
                            CHANNELS 3 Zrotation Yrotation Xrotation
                          }
                        }
                      }
                    }
                  }
                  JOINT RightHandPinky1
                  {
                    OFFSET -2.866241 1.503904 -0.60527
                    CHANNELS 3 Zrotation Yrotation Xrotation
                    JOINT RightHandPinky2
                    {
                      OFFSET -5.553177 -2e-06 0.0
                      CHANNELS 3 Zrotation Yrotation Xrotation
                      JOINT RightHandPinky3
                      {
                        OFFSET -3.062664 -1e-06 -4e-06
                        CHANNELS 3 Zrotation Yrotation Xrotation
                        JOINT RightHandPinky4
                        {
                          OFFSET -1.546529 2e-06 4e-06
                          CHANNELS 3 Zrotation Yrotation Xrotation
                          JOINT RightHandPinkyEnd
                          {
                            OFFSET -1.952341 0.0 -4e-06
                            CHANNELS 3 Zrotation Yrotation Xrotation
                          }
                        }
                      }
                    }
                  }
                }
              }
            }
          }
        }
      }
    }
    JOINT LeftLeg
    {
      OFFSET -8.443107 2.567604 10.043214
      CHANNELS 3 Zrotation Yrotation Xrotation
      JOINT LeftShin
      {
        OFFSET 43.229198 1e-06 -1e-06
        CHANNELS 3 Zrotation Yrotation Xrotation
        JOINT LeftFoot
        {
          OFFSET 42.298611 1e-06 1e-06
          CHANNELS 3 Zrotation Yrotation Xrotation
          JOINT LeftToeBase
          {
            OFFSET 14.165858 1e-06 0.0
            CHANNELS 3 Zrotation Yrotation Xrotation
            JOINT LeftToeEnd
            {
              OFFSET 6.7141 -0.234461 0.0
              CHANNELS 3 Zrotation Yrotation Xrotation
            }
          }
        }
      }
    }
    JOINT RightLeg
    {
      OFFSET -8.303923 2.592729 -10.047278
      CHANNELS 3 Zrotation Yrotation Xrotation
      JOINT RightShin
      {
        OFFSET -43.369682 0.0 1e-06
        CHANNELS 3 Zrotation Yrotation Xrotation
        JOINT RightFoot
        {
          OFFSET -42.260784 4e-06 2e-06
          CHANNELS 3 Zrotation Yrotation Xrotation
          JOINT RightToeBase
          {
            OFFSET -14.222245 -2e-06 -1e-06
            CHANNELS 3 Zrotation Yrotation Xrotation
            JOINT RightToeEnd
            {
              OFFSET -6.660062 0.232574 -2e-06
              CHANNELS 3 Zrotation Yrotation Xrotation
            }
          }
        }
      }
    }
  }
}
MOTION
Frames: 4
Frame Time: 0.03333333333333333
0.0 0.0 0.0 0.0 -0.0 0.0 1.902882 99.94429 -0.421406 88.911377 2.394468 90.009911 -2.359001 1.343075 -0.502996 -11.873606 -0.412749 -0.470869 16.834696 0.405942 -2.838936 23.463179 -2.630763 2.705292 -2.589327 -0.518566 -1.259327 -34.497898 0.339843 -2.939426 6e-06 0.0 0.0 0.032011 0.016869 0.004966 0.082624 -0.01199 0.003514 0.069998 0.043187 0.011838 -132.640656 -72.073029 150.67778 40.169994 -51.192154 14.576038 20.206036 0.193871 -0.059734 -0.315328 -4.532677 -1.354069 17.636625 -26.322729 52.411186 -19.466663 -14.395597 29.410395 -0.0 -8.774821 -3e-06 16.434711 -17.983932 5.897119 -0.609777 -1.795654 -3.889328 -4.807087 -11.046811 -2.937849 7e-06 -20.976019 -2e-06 -5.019968 -25.03356 -4.031881 4e-06 -0.0 1e-06 -10.634532 -5.68697 -3.565588 10.573272 -17.922951 -3.113902 3e-06 -13.821208 -2e-06 -0.501776 -31.181498 -4.027016 -11.72146 -60.068489 7.535079 -13.982711 -7.150197 -2.875042 13.772727 -8.40149 -3.218244 0.347732 -34.211544 0.771654 -0.963026 -17.733368 2.621016 0.0 2e-06 1e-06 -17.346415 -20.095217 -4.201783 21.757555 -1.638376 3.866426 1e-06 -6.338822 -0.0 -1.697586 -22.591745 -6.194005 0.0 -4e-06 0.0 32.098118 -70.999397 166.051956 32.366161 -50.418488 13.868462 27.3305 -0.28115 -0.01372 -3.636827 0.58787 -2.890963 22.182116 -20.375895 49.933319 -16.701811 -16.74353 28.476526 -3e-06 -12.690601 0.0 16.016178 -17.606581 2.550915 -0.105918 -1.513854 -4.275883 -5.039041 -5.612872 -2.953553 6e-06 -11.020524 -3e-06 -6.111296 -15.89533 -3.840469 -0.0 0.0 1e-06 -10.28337 -5.680287 -4.341839 11.028293 -11.302404 -2.372632 -1.384269 -14.238579 -6.320117 -0.625439 -26.924187 -3.8276 -3.946183 -49.510677 -4.031299 -13.708522 -7.363474 -3.720941 18.141148 -14.052739 -3.242674 7e-06 -18.78727 -1e-06 -0.429712 -8.456042 2.555503 -1e-06 2e-06 -1e-06 -15.923536 -20.094482 -5.473582 30.41921 -7.190827 1.735929 3e-06 -8.162925 -1e-06 -1.861903 -22.861471 -6.167941 1e-06 -5e-06 0.0 172.662888 -4.29593 -1.407836 17.878637 -0.032833 0.107964 -77.234688 1.003182 -3.846677 -6.597435 1.521942 2.110781 -0.999999 -0.0 0.0 -6.153653 -1.037082 -5.200881 14.998909 -0.022461 -0.148051 -75.017181 -6.933498 -8.474573 -6.727071 0.786736 1.63062 -1.000001 0.0 -0.0 
0.0 0.0 0.0 0.0 -0.0 0.0 1.869826 99.974739 -0.453116 88.903099 2.400674 90.031563 -2.381037 1.310945 -0.544691 -11.866401 -0.383312 -0.406408 16.826632 0.408856 -2.900803 23.472889 -2.678595 2.70181 -2.553371 -0.489011 -1.230209 -34.411533 0.29449 -2.898742 6e-06 -0.0 0.0 0.033471 0.019723 0.036141 0.095499 -0.007793 0.037272 0.078101 0.045002 0.040401 -132.693329 -72.070724 150.774033 40.295052 -51.245155 14.51211 20.285246 0.146417 -0.082026 -0.336298 -4.517937 -1.214659 17.636633 -26.322733 52.411201 -19.466663 -14.395598 29.410389 -1e-06 -8.774822 -2e-06 16.411579 -17.956364 5.903947 -0.609776 -1.795654 -3.889328 -4.807089 -11.04681 -2.937851 5e-06 -20.976019 -3e-06 -5.019971 -25.03356 -4.03188 3e-06 0.0 1e-06 -10.634535 -5.68697 -3.565587 10.573275 -17.922953 -3.113901 3e-06 -13.82121 0.0 -0.501777 -31.181505 -4.027014 -11.733343 -60.058224 7.609325 -13.982714 -7.150197 -2.875044 13.77273 -8.401493 -3.218243 0.347733 -34.211555 0.771655 -0.963029 -17.73337 2.62102 1e-06 -1e-06 0.0 -17.346416 -20.095217 -4.20178 21.757559 -1.638376 3.866426 1e-06 -6.338822 -1e-06 -1.69759 -22.591747 -6.194005 1e-06 -4e-06 1e-06 32.145809 -70.969994 166.071823 32.385731 -50.489147 13.626254 27.327518 -0.305666 -0.026683 -3.58633 0.584969 -2.718038 22.18211 -20.375902 49.933327 -16.701817 -16.74353 28.476536 -5e-06 -12.6906 -1e-06 16.017544 -17.587397 2.552195 -0.105919 -1.513857 -4.275881 -5.03904 -5.612873 -2.953559 6e-06 -11.020527 -3e-06 -6.111296 -15.895336 -3.840469 -0.0 1e-06 0.0 -10.283369 -5.680289 -4.341835 11.028296 -11.302407 -2.372635 -1.384267 -14.238585 -6.320121 -0.625437 -26.924194 -3.827601 -3.966772 -49.614109 -3.993839 -13.708524 -7.363477 -3.720939 18.14115 -14.052741 -3.242676 7e-06 -18.787271 -1e-06 -0.429712 -8.456045 2.555502 1e-06 1e-06 1e-06 -15.923534 -20.094486 -5.473585 30.419218 -7.190829 1.735924 2e-06 -8.162927 -1e-06 -1.861902 -22.861479 -6.167944 1e-06 -5e-06 -1e-06 172.779068 -4.318475 -1.338757 17.605951 -0.018465 0.141403 -77.077728 1.014232 -3.946506 -6.643081 1.540176 2.111687 -0.999999 0.0 -0.0 -5.999104 -0.985661 -5.176446 14.661997 -0.023803 -0.130205 -74.834305 -6.995077 -8.460787 -6.745354 0.775358 1.632853 -1.000002 0.0 0.0 
0.0 0.0 0.0 0.0 -0.0 0.0 1.856101 99.984901 -0.462963 88.916183 2.398185 90.021217 -2.414396 1.27214 -0.5766 -11.882234 -0.371588 -0.387011 16.877954 0.402194 -2.913741 23.452858 -2.734035 2.714016 -2.557823 -0.453349 -1.231541 -34.272354 0.259144 -2.87572 6e-06 0.0 -0.0 0.034392 0.023109 0.055708 0.090018 -0.005488 0.059664 0.072545 0.049423 0.05682 -132.691483 -72.082413 150.799164 40.404972 -51.327805 14.628297 20.473122 0.12494 -0.098831 -0.362215 -4.527656 -1.27971 17.636631 -26.322725 52.411182 -19.466661 -14.395596 29.410381 -1e-06 -8.774821 -3e-06 16.404556 -17.974394 5.917099 -0.609777 -1.795654 -3.88933 -4.807088 -11.046811 -2.937847 6e-06 -20.976019 -3e-06 -5.019968 -25.03356 -4.03188 5e-06 0.0 1e-06 -10.634534 -5.68697 -3.565587 10.573277 -17.922953 -3.1139 3e-06 -13.821209 0.0 -0.501774 -31.181511 -4.027015 -11.800325 -60.033886 7.647551 -13.982712 -7.150198 -2.875041 13.77273 -8.401493 -3.218241 0.347737 -34.211555 0.771651 -0.963026 -17.733372 2.621019 1e-06 3e-06 1e-06 -17.346416 -20.095217 -4.201784 21.757557 -1.638376 3.866426 2e-06 -6.338822 -0.0 -1.697588 -22.591745 -6.194005 -1e-06 -3e-06 -2e-06 32.118332 -70.931206 166.128448 32.388298 -50.537357 13.483908 27.364901 -0.326775 -0.040113 -3.559538 0.636275 -2.567585 22.182114 -20.375883 49.9333 -16.701813 -16.743528 28.476521 -4e-06 -12.6906 -1e-06 16.028198 -17.554787 2.563349 -0.105918 -1.513856 -4.275879 -5.03904 -5.61287 -2.953556 6e-06 -11.020523 -4e-06 -6.111294 -15.89533 -3.84047 -0.0 -0.0 0.0 -10.283368 -5.680287 -4.341838 11.028292 -11.302404 -2.372634 -1.384268 -14.238579 -6.320117 -0.625435 -26.924187 -3.827602 -3.984059 -49.659611 -3.974507 -13.708522 -7.363475 -3.72094 18.141148 -14.052738 -3.242674 7e-06 -18.78727 -2e-06 -0.42971 -8.456039 2.555502 -0.0 1e-06 -0.0 -15.923532 -20.094482 -5.473583 30.41921 -7.190827 1.735925 3e-06 -8.162925 -1e-06 -1.861899 -22.861471 -6.167942 1e-06 -5e-06 -1e-06 172.828873 -4.306518 -1.298488 17.490694 -0.015048 0.156754 -77.016823 1.005478 -4.009702 -6.623163 1.549881 2.114654 -0.999999 -0.0 0.0 -5.969639 -0.985012 -5.144579 14.580929 -0.019282 -0.127076 -74.784805 -7.053853 -8.452431 -6.724566 0.771389 1.634032 -1.000003 -0.0 -0.0 
0.0 0.0 0.0 0.0 -0.0 0.0 1.835455 99.991982 -0.466279 88.922409 2.390481 90.010773 -2.441852 1.24161 -0.594105 -11.900632 -0.364643 -0.397553 16.934671 0.391157 -2.897253 23.431646 -2.792678 2.722149 -2.576628 -0.438496 -1.213348 -34.180275 0.243809 -2.888151 6e-06 0.0 0.0 0.033998 0.024208 0.063021 0.076834 -0.005936 0.068769 0.059514 0.05199 0.061615 -132.697342 -72.087532 150.826813 40.516357 -51.423447 14.92661 20.716278 0.143285 -0.098481 -0.36467 -4.541141 -1.397173 17.636625 -26.322725 52.411186 -19.466656 -14.395597 29.410385 -0.0 -8.774821 -3e-06 16.37916 -17.974897 5.92371 -0.609776 -1.795653 -3.889329 -4.807088 -11.046808 -2.937848 4e-06 -20.976015 -3e-06 -5.01997 -25.033554 -4.031878 3e-06 -1e-06 -0.0 -10.634533 -5.68697 -3.565586 10.573274 -17.922947 -3.1139 2e-06 -13.821203 -0.0 -0.501778 -31.181494 -4.027016 -11.825636 -59.998043 7.631207 -13.982713 -7.150197 -2.875041 13.772727 -8.401489 -3.218243 0.347734 -34.211544 0.771656 -0.963028 -17.733366 2.62102 0.0 -1e-06 -1e-06 -17.346418 -20.095215 -4.20178 21.757557 -1.638374 3.866428 1e-06 -6.338821 0.0 -1.697591 -22.591742 -6.194002 -0.0 -1e-06 0.0 32.041309 -70.891953 166.215271 32.378559 -50.573429 13.52209 27.430891 -0.299931 -0.037021 -3.576714 0.621896 -2.515809 22.182112 -20.3759 49.933323 -16.701807 -16.743528 28.47653 -4e-06 -12.690598 -0.0 16.041037 -17.524006 2.574768 -0.105919 -1.513855 -4.27588 -5.039038 -5.612868 -2.953555 5e-06 -11.02052 -3e-06 -6.111292 -15.895328 -3.840469 -0.0 -0.0 1e-06 -10.283365 -5.680286 -4.34184 11.028292 -11.302404 -2.372633 -1.384268 -14.238577 -6.320118 -0.62544 -26.924183 -3.8276 -4.0112 -49.647823 -3.952473 -13.708518 -7.363473 -3.720942 18.141144 -14.052739 -3.242671 5e-06 -18.787268 0.0 -0.429712 -8.456043 2.555504 -1e-06 3e-06 2e-06 -15.923528 -20.094479 -5.473586 30.419205 -7.190826 1.735926 2e-06 -8.162922 1e-06 -1.861901 -22.861467 -6.167941 0.0 -4e-06 -1e-06 172.859146 -4.309811 -1.287091 17.411791 -0.01625 0.1627 -76.975929 0.996151 -4.062154 -6.59245 1.549059 2.114201 -1.0 0.0 -0.0 -5.954226 -0.972397 -5.111065 14.525344 -0.016323 -0.135064 -74.752838 -7.112609 -8.453656 -6.706842 0.766202 1.633039 -1.000002 0.0 -0.0 
